<?xml version="1.0" standalone="no"?>
<!DOCTYPE svg PUBLIC "-//W3C//DTD SVG 20010904//EN"
 "http://www.w3.org/TR/2001/REC-SVG-20010904/DTD/svg10.dtd">
<svg version="1.1" id="Layer_1" xmlns="http://www.w3.org/2000/svg" xmlns:xlink="http://www.w3.org/1999/xlink" x="0px" y="0px"
	 width="198.743px" height="49.947px" viewBox="0 0 198.743 49.947" enable-background="new 0 0 198.743 49.947"
	 xml:space="preserve">

<g transform="translate(0.000000,374.000000) scale(0.100000,-0.100000)"
fill="#000000" stroke="none">
<path d="M2780 3458 c-30 -11 -78 -29 -105 -39 -46 -18 -61 -18 -177 -8 -264
22 -512 -25 -764 -145 -155 -75 -282 -163 -402 -280 l-102 -100 -96 24 -96 25
-25 -30 c-69 -85 -168 -275 -229 -443 -82 -225 -109 -384 -108 -642 0 -173 4
-221 22 -307 68 -316 208 -589 431 -843 71 -80 52 -72 -61 27 -171 149 -350
393 -422 575 -70 177 -107 391 -107 613 0 317 76 571 252 835 84 127 300 343
429 429 101 68 131 91 90 71 -37 -19 -178 -118 -232 -163 l-48 -40 -107 13
c-60 7 -114 15 -121 19 -9 5 -2 19 23 48 l35 41 -52 12 -53 11 -86 -89 c-48
-50 -119 -139 -159 -198 -365 -546 -417 -1229 -137 -1817 240 -505 696 -870
1252 -1002 218 -53 505 -62 720 -25 443 76 867 333 1126 680 106 143 150 225
261 485 61 144 107 351 122 553 l6 72 -229 0 c-143 0 -232 4 -236 10 -7 12
-1285 14 -1285 3 0 -5 80 -9 178 -11 463 -7 750 -78 894 -222 46 -46 60 -69
75 -118 l18 -61 18 32 c17 30 18 30 13 6 -14 -68 -74 -200 -127 -278 -143
-215 -391 -390 -647 -458 -84 -22 -119 -26 -257 -27 -121 -1 -181 4 -245 18
-321 70 -593 242 -785 497 -176 234 -252 446 -261 729 -6 166 0 217 49 405 29
111 119 302 189 402 47 68 246 303 256 303 3 0 -5 -13 -19 -28 -13 -16 -1 -4
27 26 29 30 56 52 62 48 5 -3 16 2 23 12 12 15 12 16 -1 7 -9 -5 -4 0 10 13
14 12 30 20 37 17 7 -2 15 1 19 7 5 7 2 8 -6 3 -9 -6 -11 -4 -6 4 5 7 15 10
23 7 8 -3 11 -2 8 4 -8 12 52 43 67 34 7 -4 8 -3 4 5 -9 14 99 66 218 106 149
50 260 69 406 69 81 -1 119 2 95 6 -33 6 -35 7 -10 8 17 0 66 -3 110 -7 78 -8
83 -7 180 31 55 22 104 44 110 49 12 12 10 11 -55 -13z"/>
<path d="M2278 3373 c12 -2 30 -2 40 0 9 3 -1 5 -23 4 -22 0 -30 -2 -17 -4z"/>
<path d="M2203 3363 c9 -2 23 -2 30 0 6 3 -1 5 -18 5 -16 0 -22 -2 -12 -5z"/>
<path d="M2148 3353 c6 -2 18 -2 25 0 6 3 1 5 -13 5 -14 0 -19 -2 -12 -5z"/>
<path d="M2098 3343 c6 -2 18 -2 25 0 6 3 1 5 -13 5 -14 0 -19 -2 -12 -5z"/>
<path d="M2058 3333 c7 -3 16 -2 19 1 4 3 -2 6 -13 5 -11 0 -14 -3 -6 -6z"/>
<path d="M1995 3320 c-13 -5 -14 -9 -5 -9 8 0 24 4 35 9 13 5 14 9 5 9 -8 0
-24 -4 -35 -9z"/>
<path d="M1880 3280 c-8 -5 -10 -10 -5 -10 6 0 17 5 25 10 8 5 11 10 5 10 -5
0 -17 -5 -25 -10z"/>
<path d="M1820 3255 c-14 -8 -20 -14 -15 -14 6 0 21 6 35 14 14 8 21 14 15 14
-5 0 -21 -6 -35 -14z"/>
<path d="M1684 3184 c-18 -14 -18 -15 4 -4 12 6 22 13 22 15 0 8 -5 6 -26 -11z"/>
<path d="M1519 3073 c-13 -16 -12 -17 4 -4 9 7 17 15 17 17 0 8 -8 3 -21 -13z"/>
<path d="M3515 2851 c-104 -27 -159 -124 -118 -208 24 -51 66 -76 165 -102
104 -27 157 -50 169 -72 12 -23 12 -66 -1 -90 -23 -41 -106 -64 -177 -49 -64
15 -100 44 -114 91 -13 40 -18 43 -57 33 -20 -6 -22 -11 -17 -38 11 -53 50
-102 102 -127 71 -34 190 -34 253 1 63 35 90 80 90 148 0 51 -3 57 -42 97 -37
36 -56 45 -128 64 -139 36 -166 48 -180 82 -26 62 26 112 118 113 71 1 122
-26 137 -72 14 -42 19 -45 53 -37 29 6 30 7 20 43 -11 41 -49 86 -91 108 -33
18 -140 26 -182 15z"/>
<path d="M2010 2560 l0 -290 35 0 35 0 1 243 1 242 81 -242 82 -243 31 0 c36
0 32 -9 145 325 l54 160 3 -242 2 -243 35 0 35 0 0 290 0 290 -49 0 -49 0 -50
-142 c-27 -79 -64 -189 -83 -245 -18 -57 -36 -99 -40 -95 -4 4 -42 114 -85
245 l-79 237 -52 0 -53 0 0 -290z"/>
<path d="M2690 2560 l0 -290 35 0 35 0 0 290 0 290 -35 0 -35 0 0 -290z"/>
<path d="M2850 2820 l0 -29 93 -3 92 -3 3 -257 2 -258 35 0 35 0 2 258 3 257
93 3 92 3 0 29 0 30 -225 0 -225 0 0 -30z"/>
</g>
</svg>
